<svg id="图层_1" data-name="图层 1" xmlns="http://www.w3.org/2000/svg" viewBox="0 0 200.6 200"><defs><style>.cls-1{fill:#fff;}</style></defs><title>满意</title><path class="cls-1" d="M100,12.2a87.9,87.9,0,1,0,88,87.9A87.92,87.92,0,0,0,100,12.2Zm0,161A73.2,73.2,0,1,1,173.3,100,73.26,73.26,0,0,1,100,173.2Z"/><path class="cls-1" d="M60.6,76.9A11.27,11.27,0,1,0,63.9,69a11,11,0,0,0-3.3,7.9Z"/><path class="cls-1" d="M117.1,76.9a11.27,11.27,0,1,0,3.3-7.9,11,11,0,0,0-3.3,7.9Z"/><path class="cls-1" d="M131.4,137.4H68.7a6.49,6.49,0,0,1-6.5-6.5h0a6.49,6.49,0,0,1,6.5-6.5h62.7a6.49,6.49,0,0,1,6.5,6.5h0A6.55,6.55,0,0,1,131.4,137.4Z"/></svg>