<svg id="图层_1" data-name="图层 1" xmlns="http://www.w3.org/2000/svg" viewBox="0 0 200.6 200"><defs><style>.cls-1{fill:#fff;}</style></defs><title>满意</title><path class="cls-1" d="M101,12.2a87.9,87.9,0,1,0,88,87.9A87.92,87.92,0,0,0,101,12.2Zm0,161A73.2,73.2,0,1,1,174.3,100,73.26,73.26,0,0,1,101,173.2Z"/><path class="cls-1" d="M61.6,76.9A11.27,11.27,0,1,0,64.9,69a11,11,0,0,0-3.3,7.9Z"/><path class="cls-1" d="M118,76.9a11.27,11.27,0,1,0,3.3-7.9,11.3,11.3,0,0,0-3.3,7.9Z"/><path class="cls-1" d="M131.2,143.8a6.39,6.39,0,0,1-8.1-1.7,30.59,30.59,0,0,0-48.2-.1,6.34,6.34,0,0,1-8.1,1.7l-.4-.2a6.33,6.33,0,0,1-1.9-9.3,43.56,43.56,0,0,1,68.9,0,6.26,6.26,0,0,1-1.9,9.3Z"/></svg>