<svg id="图层_1" data-name="图层 1" xmlns="http://www.w3.org/2000/svg" viewBox="0 0 200.6 200"><defs><style>.cls-1{fill:#fff;}</style></defs><title>满意</title><path class="cls-1" d="M101.1,12.2a87.9,87.9,0,1,0,88,87.9A87.92,87.92,0,0,0,101.1,12.2Zm0,161A73.2,73.2,0,1,1,174.4,100,73.26,73.26,0,0,1,101.1,173.2Z"/><path class="cls-1" d="M137.8,104.4h0a6.46,6.46,0,0,0-6.4,5.4,30.6,30.6,0,0,1-60.2,0,6.46,6.46,0,0,0-6.4-5.4,6.53,6.53,0,0,0-6.4,7.6,43.6,43.6,0,0,0,85.8,0,6.48,6.48,0,0,0-6.4-7.6Z"/><path class="cls-1" d="M69.4,60.7a23.15,23.15,0,0,0-4,.4,23.75,23.75,0,0,0-13.8,8.6,8.88,8.88,0,0,0-2.5,6.6,6.12,6.12,0,0,0,11.5,2c.4-.7.6-.8.9-1.3a16.41,16.41,0,0,1,2.4-2.1A12.31,12.31,0,0,1,71,73.1,11.21,11.21,0,0,1,79.5,78c.9,1.2.7,1.4,2,2.4a6.19,6.19,0,0,0,9.7-5.9c-.3-2.4-2.2-4.3-3.3-5.7a11.41,11.41,0,0,0-2.2-2.2c-.7-.7-1.7-1.3-2.5-2-2.9-2.1-9.3-4.5-13.8-3.9Z"/><path class="cls-1" d="M131.9,60.7a23.15,23.15,0,0,0-4,.4,23.75,23.75,0,0,0-13.8,8.6,8.88,8.88,0,0,0-2.5,6.6,6.12,6.12,0,0,0,11.5,2c.4-.7.6-.8.9-1.3a16.41,16.41,0,0,1,2.4-2.1,12.31,12.31,0,0,1,7.1-1.8A11.21,11.21,0,0,1,142,78c.9,1.2.7,1.4,2,2.4a6.19,6.19,0,0,0,9.7-5.9c-.3-2.4-2.2-4.3-3.3-5.7a11.41,11.41,0,0,0-2.2-2.2c-.7-.7-1.7-1.3-2.5-2-3-2.1-9.3-4.5-13.8-3.9Z"/></svg>