<svg id="图层_1" data-name="图层 1" xmlns="http://www.w3.org/2000/svg" viewBox="0 0 200.6 200"><defs><style>.cls-1{fill:#fff;}</style></defs><title>满意</title><path class="cls-1" d="M101,12.2a87.9,87.9,0,1,0,88,87.9A87.92,87.92,0,0,0,101,12.2Zm0,161A73.2,73.2,0,1,1,174.3,100,73.26,73.26,0,0,1,101,173.2Z"/><path class="cls-1" d="M132.4,143.8a6.39,6.39,0,0,1-8.1-1.7,30.59,30.59,0,0,0-48.2-.1,6.34,6.34,0,0,1-8.1,1.7l-.4-.2a6.33,6.33,0,0,1-1.9-9.3,43.56,43.56,0,0,1,68.9,0,6.26,6.26,0,0,1-1.9,9.3Z"/><path class="cls-1" d="M71.7,87.2c4.5.6,10.8-1.8,13.8-3.8.8-.7,1.7-1.3,2.5-2a11.41,11.41,0,0,0,2.2-2.2c1.1-1.4,3-3.3,3.3-5.7a6.19,6.19,0,0,0-9.7-5.9c-1.3,1-1.1,1.2-2,2.4a11.38,11.38,0,0,1-8.5,4.9,12.52,12.52,0,0,1-7.1-1.8A16.41,16.41,0,0,1,63.8,71a14.63,14.63,0,0,1-.9-1.3,6.13,6.13,0,0,0-11.5,2c-.4,2.8,1.3,5.2,2.5,6.6a23.75,23.75,0,0,0,13.8,8.6,35.84,35.84,0,0,0,4,.3Z"/><path class="cls-1" d="M127.2,87.2c4.5.6,10.8-1.8,13.8-3.8.8-.7,1.7-1.3,2.5-2a11.41,11.41,0,0,0,2.2-2.2c1.1-1.4,3-3.3,3.3-5.7a6.19,6.19,0,0,0-9.7-5.9c-1.3,1-1.1,1.2-2,2.4a11.38,11.38,0,0,1-8.5,4.9,12.52,12.52,0,0,1-7.1-1.8,16.41,16.41,0,0,1-2.4-2.1,14.63,14.63,0,0,1-.9-1.3,6.13,6.13,0,0,0-11.5,2c-.4,2.8,1.3,5.2,2.5,6.6a23.75,23.75,0,0,0,13.8,8.6,35.84,35.84,0,0,0,4,.3Z"/></svg>