<?xml version="1.0" standalone="no"?><!DOCTYPE svg PUBLIC "-//W3C//DTD SVG 1.1//EN" "http://www.w3.org/Graphics/SVG/1.1/DTD/svg11.dtd"><svg t="1494577128132" class="icon" style="" viewBox="0 0 1027 1024" version="1.1" xmlns="http://www.w3.org/2000/svg" p-id="30038" xmlns:xlink="http://www.w3.org/1999/xlink" width="200.5859375" height="200"><defs><style type="text/css"></style></defs><path d="M512.5 62.3C263.7 62.3 62 263.7 62 512.1S263.7 962 512.5 962 963 760.6 963 512.2 761.3 62.3 512.5 62.3L512.5 62.3 512.5 62.3zM512.5 887c-207.3 0-375.4-167.8-375.4-374.8s168.1-374.9 375.4-374.9 375.4 167.8 375.4 374.9C887.9 719.2 719.8 887 512.5 887L512.5 887zM310.8 393.5c0 15 6.2 29.9 16.8 40.4 10.6 10.6 25.5 16.8 40.5 16.8s29.9-6.2 40.5-16.8 16.8-25.5 16.8-40.4c0-15-6.2-29.9-16.8-40.4-10.6-10.6-25.5-16.8-40.5-16.8s-29.9 6.2-40.5 16.8C317 363.6 310.8 378.5 310.8 393.5L310.8 393.5zM599.7 393.5c0 15 6.2 29.9 16.8 40.4 10.6 10.6 25.5 16.8 40.5 16.8s29.9-6.2 40.5-16.8 16.8-25.5 16.8-40.4c0-15-6.2-29.9-16.8-40.4-10.6-10.6-25.5-16.8-40.5-16.8s-29.9 6.2-40.5 16.8C605.9 363.6 599.7 378.5 599.7 393.5L599.7 393.5zM699.2 534.7 699.2 534.7c-16.2 0-30 11.7-32.8 27.6-13 73-77 128.5-153.9 128.5-76.9 0-140.8-55.4-153.9-128.5-2.8-15.9-16.6-27.6-32.8-27.6-20.7 0-36.4 18.7-32.8 39.1 18.5 104.3 109.7 183.5 219.5 183.5 109.7 0 201-79.2 219.5-183.5C735.6 553.4 719.9 534.7 699.2 534.7L699.2 534.7 699.2 534.7z" p-id="30039" fill="#ffffff"></path></svg>